<svg width="48" height="48" viewBox="0 0 48 48" fill="none" xmlns="http://www.w3.org/2000/svg">
<g id="apple">
<rect id="Rectangle 16" width="48" height="48" rx="24" fill="#C5DCFB"/>
<g id="&#240;&#159;&#166;&#134; icon &#34;apple fill&#34;">
<path id="Vector" d="M23.3733 16.0367C21.9133 16.0367 19.6533 14.3767 17.2733 14.4367C14.1333 14.4767 11.2533 16.2567 9.63333 19.0767C6.37333 24.7367 8.79333 33.0967 11.9733 37.6967C13.5333 39.9367 15.3733 42.4567 17.8133 42.3767C20.1533 42.2767 21.0333 40.8567 23.8733 40.8567C26.6933 40.8567 27.4933 42.3767 29.9733 42.3167C32.4933 42.2767 34.0933 40.0367 35.6333 37.7767C37.4133 35.1767 38.1533 32.6567 38.1933 32.5167C38.1333 32.4967 33.2933 30.6367 33.2333 25.0367C33.1933 20.3567 37.0533 18.1167 37.2333 18.0167C35.0333 14.7967 31.6533 14.4367 30.4733 14.3567C27.3933 14.1167 24.8133 16.0367 23.3733 16.0367ZM28.5733 11.3167C29.8733 9.75666 30.7333 7.57666 30.4933 5.41666C28.6333 5.49666 26.3933 6.65666 25.0533 8.21666C23.8533 9.59666 22.8133 11.8167 23.0933 13.9367C25.1533 14.0967 27.2733 12.8767 28.5733 11.3167Z" fill="#016AFC"/>
</g>
</g>
</svg>
