<svg width="32" height="32" viewBox="0 0 32 32" fill="none" xmlns="http://www.w3.org/2000/svg">
<g id="at">
<path id="Vector" d="M26.6666 16C26.6664 13.6225 25.8718 11.3132 24.4092 9.43892C22.9465 7.56459 20.8996 6.23264 18.5935 5.65458C16.2873 5.07651 13.8542 5.28547 11.6803 6.24827C9.50652 7.21107 7.71667 8.87252 6.59501 10.9688C5.47335 13.0651 5.08417 15.476 5.48928 17.8187C5.89439 20.1614 7.07057 22.3016 8.83103 23.8995C10.5915 25.4974 12.8353 26.4613 15.2062 26.6382C17.5771 26.8152 19.9392 26.1949 21.9173 24.876L23.3973 27.0947C21.2082 28.5583 18.6332 29.3376 16 29.3333C8.63596 29.3333 2.66663 23.364 2.66663 16C2.66663 8.636 8.63596 2.66666 16 2.66666C23.364 2.66666 29.3333 8.636 29.3333 16V18C29.3334 18.9983 29.0134 19.9704 28.4202 20.7734C27.8271 21.5764 26.992 22.168 26.0378 22.4614C25.0835 22.7547 24.0603 22.7342 23.1185 22.4031C22.1767 22.0719 21.3659 21.4474 20.8053 20.6213C19.9154 21.5467 18.7772 22.1954 17.5276 22.4895C16.2779 22.7836 14.9699 22.7107 13.7607 22.2794C12.5515 21.8482 11.4925 21.0769 10.711 20.0584C9.92953 19.0399 9.45874 17.8174 9.35521 16.5377C9.25169 15.2581 9.51985 13.9758 10.1275 12.8449C10.7351 11.714 11.6563 10.7826 12.7805 10.1625C13.9046 9.54251 15.1839 9.26025 16.4646 9.34968C17.7453 9.43911 18.9729 9.89642 20 10.6667H22.6666V18C22.6666 18.5304 22.8773 19.0391 23.2524 19.4142C23.6275 19.7893 24.1362 20 24.6666 20C25.1971 20 25.7058 19.7893 26.0808 19.4142C26.4559 19.0391 26.6666 18.5304 26.6666 18V16ZM16 12C14.9391 12 13.9217 12.4214 13.1715 13.1716C12.4214 13.9217 12 14.9391 12 16C12 17.0609 12.4214 18.0783 13.1715 18.8284C13.9217 19.5786 14.9391 20 16 20C17.0608 20 18.0782 19.5786 18.8284 18.8284C19.5785 18.0783 20 17.0609 20 16C20 14.9391 19.5785 13.9217 18.8284 13.1716C18.0782 12.4214 17.0608 12 16 12Z" fill="#016AFC"/>
</g>
</svg>
