<svg xmlns="http://www.w3.org/2000/svg" width="20" height="20" viewBox="0 0 20 20" fill="none">
<g clip-path="url(#clip0_8_516)">
<path d="M4.85669 5.83333L6.97002 7.94667L5.79169 9.125L1.66669 5L5.79169 0.875L6.97002 2.05333L4.85669 4.16667H10.8334C12.6015 4.16667 14.2972 4.86905 15.5474 6.11929C16.7976 7.36953 17.5 9.06522 17.5 10.8333C17.5 12.6014 16.7976 14.2971 15.5474 15.5474C14.2972 16.7976 12.6015 17.5 10.8334 17.5H3.33335V15.8333H10.8334C12.1594 15.8333 13.4312 15.3066 14.3689 14.3689C15.3066 13.4312 15.8334 12.1594 15.8334 10.8333C15.8334 9.50725 15.3066 8.23548 14.3689 7.2978C13.4312 6.36012 12.1594 5.83333 10.8334 5.83333H4.85669Z" fill="white"/>
</g>
<defs>
<clipPath id="clip0_8_516">
<rect width="20" height="20" fill="white"/>
</clipPath>
</defs>
</svg>