<svg xmlns="http://www.w3.org/2000/svg" width="24" height="24" viewBox="0 0 24 24" fill="none">
<path fill-rule="evenodd" clip-rule="evenodd" d="M2.92623 0.502285C2.60292 0.190014 2.16988 0.0172237 1.7204 0.0211296C1.27092 0.0250354 0.840958 0.205325 0.523115 0.523167C0.205273 0.84101 0.0249834 1.27097 0.0210776 1.72045C0.0171717 2.16993 0.189962 2.60297 0.502233 2.92629L9.57595 12L0.502233 21.0737C0.338501 21.2319 0.207903 21.421 0.118059 21.6302C0.0282152 21.8393 -0.0190755 22.0643 -0.0210534 22.2919C-0.0230314 22.5195 0.0203429 22.7452 0.106539 22.9559C0.192735 23.1666 0.320026 23.358 0.480985 23.519C0.641943 23.6799 0.833347 23.8072 1.04403 23.8934C1.25471 23.9796 1.48044 24.023 1.70806 24.021C1.93569 24.019 2.16063 23.9717 2.36978 23.8819C2.57893 23.792 2.7681 23.6614 2.92623 23.4977L11.9999 14.424L21.0737 23.4977C21.397 23.81 21.83 23.9828 22.2795 23.9789C22.729 23.975 23.1589 23.7947 23.4768 23.4768C23.7946 23.159 23.9749 22.729 23.9788 22.2795C23.9827 21.8301 23.8099 21.397 23.4977 21.0737L14.4239 12L23.4977 2.92629C23.8099 2.60297 23.9827 2.16993 23.9788 1.72045C23.9749 1.27097 23.7946 0.84101 23.4768 0.523167C23.1589 0.205325 22.729 0.0250354 22.2795 0.0211296C21.83 0.0172237 21.397 0.190014 21.0737 0.502285L11.9999 9.576L2.92623 0.502285Z" fill="white"/>
</svg>