<svg xmlns="http://www.w3.org/2000/svg" width="27" height="30" viewBox="0 0 27 30" fill="none">
<path fill-rule="evenodd" clip-rule="evenodd" d="M11.026 4.30995C11.4545 3.85095 11.9869 3.51902 12.5711 3.34664C13.1552 3.17426 13.7711 3.16733 14.3585 3.32652C14.9459 3.48572 15.4847 3.80559 15.9221 4.25484C16.3595 4.70409 16.6806 5.26734 16.854 5.88946H10.146C10.3124 5.29283 10.6149 4.75 11.026 4.30995ZM7.078 5.88946C7.31739 4.24853 8.09608 2.75328 9.27363 1.67337C10.4512 0.59347 11.9501 0 13.5 0C15.0499 0 16.5488 0.59347 17.7264 1.67337C18.9039 2.75328 19.6826 4.24853 19.922 5.88946H25.5C25.8978 5.88946 26.2794 6.0588 26.5607 6.36024C26.842 6.66168 27 7.07052 27 7.49682C27 7.92313 26.842 8.33197 26.5607 8.63341C26.2794 8.93485 25.8978 9.10419 25.5 9.10419H23.5V26.7853C23.5 27.6379 23.1839 28.4555 22.6213 29.0584C22.0587 29.6613 21.2956 30 20.5 30H6.5C5.70435 30 4.94129 29.6613 4.37868 29.0584C3.81607 28.4555 3.5 27.6379 3.5 26.7853V9.10419H1.5C1.30302 9.10419 1.10796 9.06262 0.925975 8.98184C0.743986 8.90106 0.578628 8.78267 0.43934 8.63341C0.300052 8.48415 0.189563 8.30695 0.114181 8.11194C0.0387987 7.91692 0 7.70791 0 7.49682C0 7.28574 0.0387987 7.07673 0.114181 6.88171C0.189563 6.6867 0.300052 6.5095 0.43934 6.36024C0.578628 6.21098 0.743986 6.09259 0.925975 6.01181C1.10796 5.93103 1.30302 5.88946 1.5 5.88946H7.078ZM9.5 12.589C10.19 12.589 10.75 13.1891 10.75 13.9284V22.5054C10.75 22.8606 10.6183 23.2013 10.3839 23.4525C10.1495 23.7037 9.83152 23.8448 9.5 23.8448C9.16848 23.8448 8.85054 23.7037 8.61612 23.4525C8.3817 23.2013 8.25 22.8606 8.25 22.5054V13.9284C8.25 13.1891 8.81 12.589 9.5 12.589ZM18.75 13.9284C18.75 13.5732 18.6183 13.2325 18.3839 12.9813C18.1495 12.7301 17.8315 12.589 17.5 12.589C17.1685 12.589 16.8505 12.7301 16.6161 12.9813C16.3817 13.2325 16.25 13.5732 16.25 13.9284V22.5054C16.25 22.8606 16.3817 23.2013 16.6161 23.4525C16.8505 23.7037 17.1685 23.8448 17.5 23.8448C17.8315 23.8448 18.1495 23.7037 18.3839 23.4525C18.6183 23.2013 18.75 22.8606 18.75 22.5054V13.9284Z" fill="white"/>
</svg>