<svg width="24" height="24" viewBox="0 0 24 24" fill="none" xmlns="http://www.w3.org/2000/svg">
<g clip-path="url(#clip0_92_89)">
<path d="M11.8726 22.6315L6.72974 23.0772L7.17545 17.9344L17.8726 7.30582C18.0323 7.14255 18.223 7.01281 18.4335 6.92423C18.6438 6.83566 18.8699 6.79004 19.0983 6.79004C19.3266 6.79004 19.5527 6.83566 19.7632 6.92423C19.9738 7.01281 20.1644 7.14255 20.324 7.30582L22.5011 9.5001C22.6618 9.65948 22.7893 9.84908 22.8764 10.058C22.9635 10.2669 23.0082 10.4909 23.0082 10.7172C23.0082 10.9435 22.9635 11.1676 22.8764 11.3765C22.7893 11.5854 22.6618 11.775 22.5011 11.9344L11.8726 22.6315Z" stroke="black" stroke-width="1.71429" stroke-linecap="round" stroke-linejoin="round"/>
<path d="M1.4429 6.80914C0.841301 6.70447 0.841301 5.84086 1.44289 5.7362C3.62237 5.35702 5.35582 3.69698 5.8289 1.53594L5.86515 1.37029C5.9953 0.775722 6.8419 0.772021 6.97724 1.36543L7.02127 1.55848C7.51185 3.70932 9.24578 5.35534 11.4192 5.73346C12.0239 5.83865 12.0239 6.70668 11.4192 6.81187C9.24578 7.18999 7.51185 8.83601 7.02127 10.9869L6.97724 11.1799C6.8419 11.7733 5.9953 11.7696 5.86515 11.175L5.8289 11.0094C5.35582 8.84835 3.62237 7.18831 1.4429 6.80914Z" stroke="black" stroke-width="1.71429" stroke-linecap="round" stroke-linejoin="round"/>
</g>
<defs>
<clipPath id="clip0_92_89">
<rect width="24" height="24" fill="white"/>
</clipPath>
</defs>
</svg>
