<svg width="404" height="318" viewBox="0 0 404 318" fill="none" xmlns="http://www.w3.org/2000/svg">
<path d="M327 100C327 121.539 256.676 183.5 202 183.5C147.324 183.5 70 121.539 70 100C169 86 147.324 0 202 0C256.676 0 228 86 327 100Z" fill="white"/>
<path d="M403.5 183C403.5 257.558 326.525 318 199.5 318C72.4745 318 0 257.558 0 183C0 108.442 72.4745 48 199.5 48C326.525 48 403.5 108.442 403.5 183Z" fill="white"/>
<path d="M270.771 161.724C270.771 173.837 260.382 183.656 247.567 183.656C234.751 183.656 214.5 159.581 214.5 147.469C214.5 135.357 234.751 139.793 247.567 139.793C260.382 139.793 270.771 149.612 270.771 161.724Z" fill="#016AFC"/>
<ellipse cx="231" cy="158.5" rx="3.5" ry="4.5" fill="white"/>
<ellipse cx="242" cy="158.5" rx="3.5" ry="4.5" fill="white"/>
<ellipse cx="253" cy="158.5" rx="3.5" ry="4.5" fill="white"/>
<path d="M183.031 148.194C183.031 160.307 164.52 183.284 151.705 183.284C138.889 183.284 128.5 173.465 128.5 161.353C128.5 149.241 138.889 139.422 151.705 139.422C164.52 139.422 183.031 136.082 183.031 148.194Z" fill="#016AFC"/>
<ellipse cx="144" cy="159.5" rx="3.5" ry="4.5" fill="white"/>
<ellipse cx="155" cy="159.5" rx="3.5" ry="4.5" fill="white"/>
<ellipse cx="166" cy="159.5" rx="3.5" ry="4.5" fill="white"/>
<path d="M268 263.5C268 280.897 242.712 263.5 203.5 263.5C164.288 263.5 135 280.897 135 263.5C135 246.103 164.288 223 203.5 223C242.712 223 268 246.103 268 263.5Z" fill="#016AFC"/>
<ellipse cx="199.5" cy="223" rx="34" ry="27" fill="white"/>
<path d="M266.5 263.5C266.5 265.513 266.131 266.822 265.577 267.681C265.047 268.501 264.25 269.061 263.041 269.392C261.79 269.734 260.146 269.814 258.048 269.649C255.963 269.486 253.529 269.091 250.74 268.551C248.725 268.161 246.539 267.697 244.192 267.198C233.592 264.948 219.705 262 203.5 262C187.642 262 173.354 264.824 162.077 267.053C159.287 267.605 156.682 268.12 154.283 268.547C148.122 269.643 143.547 270.111 140.543 269.381C139.104 269.032 138.156 268.436 137.542 267.604C136.916 266.756 136.5 265.476 136.5 263.5C136.5 259.565 138.163 255.163 141.402 250.715C144.632 246.278 149.374 241.879 155.363 237.983C167.341 230.193 184.181 224.5 203.5 224.5C222.813 224.5 238.632 230.189 249.588 237.95C260.608 245.757 266.5 255.485 266.5 263.5Z" stroke="#016AFC" stroke-width="3"/>
</svg>
