<svg width="48" height="48" viewBox="0 0 48 48" fill="none" xmlns="http://www.w3.org/2000/svg">
<g id="google">
<rect id="Rectangle 14" width="48" height="48" rx="24" fill="#C5DCFB"/>
<g id="&#240;&#159;&#166;&#134; icon &#34;google fill&#34;">
<path id="Vector" d="M9.10668 16.5167C10.4934 13.7554 12.6206 11.4342 15.2507 9.81246C17.8808 8.19072 20.9101 7.33237 24 7.33334C27.1713 7.33334 29.9845 8.15585 32.3798 9.58676C34.0108 10.5611 34.0359 12.7895 32.6928 14.1331V14.1331C31.4025 15.4238 29.3273 15.365 27.6422 14.6642C26.5198 14.1974 25.2949 13.9617 24 13.9617C19.6583 13.9617 15.9833 16.895 14.675 20.8333C14.3417 21.8333 14.1517 22.9 14.1517 24C14.1517 25.1 14.3417 26.1667 14.675 27.1667C15.985 31.1067 19.6583 34.0383 24 34.0383C26.2417 34.0383 28.15 33.4467 29.6433 32.4467C30.5091 31.8767 31.2502 31.1371 31.822 30.2725V30.2725C32.7121 28.9267 31.4845 27.4167 29.8711 27.4167H27.2233C25.4431 27.4167 24 25.9735 24 24.1933V24.1933C24 22.4131 25.4431 20.97 27.2233 20.97H36.2703C38.2538 20.97 40 22.3948 40 24.3783V24.3783C40 29.455 38.1833 33.7283 35.03 36.6283C32.2733 39.175 28.5 40.6667 24 40.6667C21.8111 40.6676 19.6434 40.2371 17.6209 39.3998C15.5984 38.5625 13.7608 37.3349 12.2129 35.7871C10.6651 34.2393 9.4375 32.4016 8.60023 30.3791C7.76297 28.3566 7.33247 26.189 7.33334 24C7.33334 21.31 7.97668 18.7667 9.10668 16.5167Z" fill="#016AFC"/>
</g>
</g>
</svg>
