<svg width="32" height="32" viewBox="0 0 32 32" fill="none" xmlns="http://www.w3.org/2000/svg">
<g id="&#240;&#159;&#166;&#134; icon &#34;key&#34;">
<path id="Vector" d="M0.617641 25.8679L0.0173627 30.0648C-0.0589439 30.5939 0.119105 31.1263 0.495551 31.5044C0.871997 31.8826 1.40614 32.0589 1.9352 31.9826L6.13206 31.3824C6.76795 31.2925 8.36191 27.0125 8.36191 27.0125C8.36191 27.0125 9.16228 27.6993 9.48955 27.8027C10.1882 28.0232 10.8682 27.3381 11.0971 26.6429L11.7533 23.6381C11.7533 23.6381 12.7317 24.1332 13.0861 24.2061C13.5372 24.2994 13.9747 24.0213 14.285 23.7093C14.4664 23.5279 14.6089 23.304 14.6937 23.0463L15.1447 20.2467C15.1447 20.2467 16.2893 20.5638 16.681 20.6096C17.127 20.6604 17.5611 20.4332 17.8799 20.1127L19.8096 18.1847C23.0331 19.2225 26.7162 18.473 29.2733 15.9159C32.9089 12.2786 32.9089 6.36227 29.2733 2.72669C25.636 -0.908896 19.7197 -0.908896 16.0841 2.72669C13.527 5.28381 12.7758 8.96518 13.8153 12.1904L1.09583 24.9082C0.836387 25.1676 0.668512 25.5034 0.617641 25.8679ZM26.1736 5.82643C28.0999 7.75614 28.0999 10.8847 26.1736 12.8161L19.1839 5.82643C21.1153 3.90012 24.2439 3.90012 26.1736 5.82643Z" fill="#016AFC"/>
</g>
</svg>
