<svg width="32" height="21" viewBox="0 0 32 21" fill="none" xmlns="http://www.w3.org/2000/svg">
<g id="&#240;&#159;&#166;&#134; icon &#34;keyboard&#34;">
<path id="Vector" d="M29.0909 0H2.90909C1.30327 0 0 1.30327 0 2.90909V17.4545C0 19.0604 1.30327 20.3636 2.90909 20.3636H29.0909C30.6967 20.3636 32 19.0604 32 17.4545V2.90909C32 1.30327 30.6967 0 29.0909 0ZM17.4545 2.90909H20.3636V5.81818H17.4545V2.90909ZM17.4545 8.72727H20.3636V11.6364H17.4545V8.72727ZM11.6364 2.90909H14.5455V5.81818H11.6364V2.90909ZM11.6364 8.72727H14.5455V11.6364H11.6364V8.72727ZM5.81818 2.90909H8.72727V5.81818H5.81818V2.90909ZM5.81818 8.72727H8.72727V11.6364H5.81818V8.72727ZM23.2727 17.4545H8.72727V14.5455H23.2727V17.4545ZM26.1818 11.6364H23.2727V8.72727H26.1818V11.6364ZM26.1818 5.81818H23.2727V2.90909H26.1818V5.81818Z" fill="#016AFC"/>
</g>
</svg>
