<svg width="404" height="318" viewBox="0 0 404 318" fill="none" xmlns="http://www.w3.org/2000/svg">
<path d="M327 100C327 121.539 256.676 183.5 202 183.5C147.324 183.5 70 121.539 70 100C169 86 147.324 0 202 0C256.676 0 228 86 327 100Z" fill="white"/>
<path d="M403.5 183C403.5 257.558 326.525 318 199.5 318C72.4745 318 0 257.558 0 183C0 108.442 72.4745 48 199.5 48C326.525 48 403.5 108.442 403.5 183Z" fill="white"/>
<path d="M270.771 161.724C270.771 173.837 260.382 183.656 247.567 183.656C234.751 183.656 214.5 159.581 214.5 147.469C214.5 135.357 234.751 139.793 247.567 139.793C260.382 139.793 270.771 149.612 270.771 161.724Z" fill="#016AFC"/>
<ellipse cx="231" cy="158.5" rx="3.5" ry="4.5" fill="white"/>
<ellipse cx="242" cy="158.5" rx="3.5" ry="4.5" fill="white"/>
<ellipse cx="253" cy="158.5" rx="3.5" ry="4.5" fill="white"/>
<path d="M183.031 148.194C183.031 160.307 164.52 183.284 151.705 183.284C138.889 183.284 128.5 173.465 128.5 161.353C128.5 149.241 138.889 139.422 151.705 139.422C164.52 139.422 183.031 136.082 183.031 148.194Z" fill="#016AFC"/>
<ellipse cx="144" cy="159.5" rx="3.5" ry="4.5" fill="white"/>
<ellipse cx="155" cy="159.5" rx="3.5" ry="4.5" fill="white"/>
<ellipse cx="166" cy="159.5" rx="3.5" ry="4.5" fill="white"/>
<path d="M270.5 214.5C270.5 231.897 238.712 264 199.5 264C160.288 264 124 231.897 124 214.5C124 197.103 160.288 223.5 199.5 223.5C238.712 223.5 270.5 197.103 270.5 214.5Z" fill="#016AFC"/>
<ellipse cx="199.5" cy="223" rx="34" ry="27" fill="white"/>
<path d="M268.5 213.933C268.5 217.869 266.682 222.846 263.168 228.182C259.674 233.488 254.589 239.018 248.272 244.033C235.631 254.068 218.201 261.933 199 261.933C179.786 261.933 161.214 254.058 147.43 243.996C140.544 238.969 134.899 233.43 130.991 228.118C127.053 222.766 125 217.814 125 213.933C125 212.005 125.498 211.006 126.128 210.45C126.796 209.861 127.924 209.487 129.772 209.5C133.513 209.527 139.036 211.105 146.093 213.34C147.231 213.7 148.405 214.076 149.612 214.463C163.13 218.793 180.742 224.434 199 224.434C217.661 224.434 234.645 218.544 247.237 214.178C248.075 213.887 248.894 213.603 249.693 213.328C252.906 212.222 255.77 211.266 258.27 210.583C260.784 209.896 262.833 209.513 264.432 209.5C266.034 209.488 266.955 209.846 267.498 210.387C268.044 210.932 268.5 211.953 268.5 213.933Z" stroke="#016AFC" stroke-width="3"/>
</svg>
