<svg width="383" height="350" viewBox="0 0 383 350" fill="none" xmlns="http://www.w3.org/2000/svg">
<g filter="url(#filter0_d_14_64)">
<path d="M368 35.6807C368 103.509 216.713 334.219 144.946 334.219C73.1787 334.219 15 279.233 15 211.405C15 143.576 73.1787 88.5899 144.946 88.5899C216.713 88.5899 368 -32.148 368 35.6807Z" fill="white"/>
<path d="M144.946 88.5899H326.522C340.619 88.5899 352.047 99.3907 352.047 112.714V210.856C352.047 278.988 293.608 334.219 221.521 334.219H144.946V88.5899Z" fill="white"/>
<path d="M144.946 86.0899H142.446V86.1118C70.581 87.3721 12.5 142.857 12.5 211.405C12.5 279.952 70.581 335.437 142.446 336.698V336.719H144.946H221.521C294.854 336.719 354.547 280.5 354.547 210.856V112.714C354.547 108.109 353.325 103.797 351.18 100.04C356.286 88.8726 360.532 78.3458 363.73 68.7751C368.04 55.8785 370.5 44.5563 370.5 35.6807C370.5 26.7687 368.003 20.3162 362.854 16.4759C357.815 12.7179 350.839 11.9316 342.951 12.8493C327.18 14.6844 305.662 23.6101 282.334 34.4317C274.397 38.1133 266.235 42.0221 257.973 45.979C241.757 53.7455 225.154 61.6976 209.102 68.4816C184.832 78.7383 162.334 86.0899 144.946 86.0899Z" stroke="#016AFC" stroke-width="5"/>
</g>
<path d="M100.277 152.07C100.277 164.182 81.7662 187.16 68.9507 187.16C56.1351 187.16 45.7461 177.341 45.7461 165.229C45.7461 153.117 56.1351 143.298 68.9507 143.298C81.7662 143.298 100.277 139.958 100.277 152.07Z" fill="#016AFC"/>
<path d="M48.129 214.314C48.1289 214.314 48.1322 214.317 48.1389 214.325C48.1324 214.318 48.129 214.315 48.129 214.314ZM114.624 272.285C139.292 272.285 158.691 269.108 171.977 262.59C178.638 259.323 183.814 255.191 187.325 250.15C190.845 245.097 192.635 239.208 192.635 232.536C192.635 229.104 191.812 226.337 190.099 224.248C188.39 222.164 185.945 220.938 183.058 220.292C177.377 219.02 169.447 219.884 160.295 221.475C155.91 222.238 151.204 223.175 146.252 224.161C130.275 227.343 111.73 231.036 93.0958 231.036C68.9456 231.036 58.3439 222.296 53.7573 216.903C52.5951 215.537 51.7983 214.361 51.2392 213.528C51.217 213.495 51.1947 213.461 51.1724 213.428C50.9332 213.071 50.6967 212.719 50.5002 212.474C50.4064 212.357 50.2187 212.13 49.9597 211.955C49.8248 211.865 49.5603 211.712 49.195 211.675C48.7662 211.631 48.3436 211.764 48.017 212.038C47.7389 212.272 47.606 212.544 47.5446 212.695C47.4781 212.859 47.4436 213.012 47.4236 213.121C47.3839 213.339 47.3698 213.574 47.3634 213.783C47.3504 214.21 47.3646 214.801 47.3856 215.523C47.3904 215.686 47.3956 215.858 47.401 216.04C47.4449 217.498 47.5071 219.562 47.5071 222.38C47.5071 235.488 51.7378 248.045 62.3956 257.298C73.0234 266.526 89.8327 272.285 114.624 272.285Z" fill="#016AFC" stroke="#016AFC" stroke-width="3"/>
<path d="M165.83 165.229C165.83 177.341 155.441 187.16 142.625 187.16C129.81 187.16 109.559 163.086 109.559 150.973C109.559 138.861 129.81 143.298 142.625 143.298C155.441 143.298 165.83 153.117 165.83 165.229Z" fill="#016AFC"/>
<g style="mix-blend-mode:hard-light">
<path d="M69 222H131C131 237.464 118.464 250 103 250H97C81.536 250 69 237.464 69 222Z" fill="white"/>
</g>
<ellipse cx="127.5" cy="165.5" rx="3.5" ry="4.5" fill="white"/>
<ellipse cx="138.5" cy="165.5" rx="3.5" ry="4.5" fill="white"/>
<ellipse cx="149.5" cy="165.5" rx="3.5" ry="4.5" fill="white"/>
<ellipse cx="58.5" cy="165.5" rx="3.5" ry="4.5" fill="white"/>
<ellipse cx="69.5" cy="165.5" rx="3.5" ry="4.5" fill="white"/>
<ellipse cx="80.5" cy="165.5" rx="3.5" ry="4.5" fill="white"/>
<path d="M47.7489 214.639C47.7488 214.638 47.7544 214.644 47.7657 214.658C47.7547 214.646 47.749 214.639 47.7489 214.639ZM114.624 272.785C139.32 272.785 158.809 269.606 172.197 263.039C178.915 259.744 184.165 255.562 187.735 250.436C191.318 245.293 193.135 239.303 193.135 232.536C193.135 229.025 192.292 226.134 190.486 223.931C188.684 221.734 186.125 220.466 183.167 219.804C177.375 218.507 169.352 219.393 160.21 220.983C155.803 221.749 151.082 222.689 146.12 223.677C130.15 226.857 111.675 230.536 93.0958 230.536C69.0896 230.536 58.6281 221.858 54.1381 216.58C52.9949 215.235 52.2109 214.078 51.6544 213.249C51.6315 213.215 51.6083 213.181 51.5851 213.146C51.3503 212.795 51.1011 212.424 50.8902 212.161C50.7924 212.039 50.5651 211.76 50.2388 211.541C50.0685 211.426 49.7245 211.226 49.2453 211.177C48.6813 211.12 48.1247 211.295 47.6953 211.655C47.3305 211.962 47.1587 212.317 47.0814 212.507C46.9973 212.714 46.9551 212.903 46.9317 213.032C46.8852 213.287 46.8702 213.551 46.8637 213.768C46.8501 214.213 46.8649 214.819 46.8859 215.538C46.8906 215.701 46.8958 215.873 46.9013 216.055C46.9452 217.513 47.0071 219.57 47.0071 222.38C47.0071 235.598 51.277 248.307 62.0678 257.676C72.8187 267.01 89.763 272.785 114.624 272.785Z" stroke="#016AFC" stroke-width="4"/>
<defs>
<filter id="filter0_d_14_64" x="0" y="0.000488281" width="383" height="349.219" filterUnits="userSpaceOnUse" color-interpolation-filters="sRGB">
<feFlood flood-opacity="0" result="BackgroundImageFix"/>
<feColorMatrix in="SourceAlpha" type="matrix" values="0 0 0 0 0 0 0 0 0 0 0 0 0 0 0 0 0 0 127 0" result="hardAlpha"/>
<feOffset/>
<feGaussianBlur stdDeviation="5"/>
<feComposite in2="hardAlpha" operator="out"/>
<feColorMatrix type="matrix" values="0 0 0 0 0 0 0 0 0 0 0 0 0 0 0 0 0 0 0.25 0"/>
<feBlend mode="normal" in2="BackgroundImageFix" result="effect1_dropShadow_14_64"/>
<feBlend mode="normal" in="SourceGraphic" in2="effect1_dropShadow_14_64" result="shape"/>
</filter>
</defs>
</svg>
