<svg width="35" height="35" viewBox="0 0 35 35" fill="none" xmlns="http://www.w3.org/2000/svg">
<g id="Frame" clip-path="url(#clip0_8_278)">
<g id="Group">
<path id="Vector" d="M17.5 4.375C15.8959 4.375 14.5834 5.6875 14.5834 7.29167C14.5834 8.89583 15.8959 10.2083 17.5 10.2083C19.1042 10.2083 20.4167 8.89583 20.4167 7.29167C20.4167 5.6875 19.1042 4.375 17.5 4.375ZM17.5 24.7917C15.8959 24.7917 14.5834 26.1042 14.5834 27.7083C14.5834 29.3125 15.8959 30.625 17.5 30.625C19.1042 30.625 20.4167 29.3125 20.4167 27.7083C20.4167 26.1042 19.1042 24.7917 17.5 24.7917ZM17.5 14.5833C15.8959 14.5833 14.5834 15.8958 14.5834 17.5C14.5834 19.1042 15.8959 20.4167 17.5 20.4167C19.1042 20.4167 20.4167 19.1042 20.4167 17.5C20.4167 15.8958 19.1042 14.5833 17.5 14.5833Z" fill="white"/>
</g>
</g>
<defs>
<clipPath id="clip0_8_278">
<rect width="35" height="35" fill="white"/>
</clipPath>
</defs>
</svg>
