<svg width="26" height="26" viewBox="0 0 26 26" fill="none" xmlns="http://www.w3.org/2000/svg">
<g clip-path="url(#clip0_141_164)">
<path fill-rule="evenodd" clip-rule="evenodd" d="M14.8571 1.85714C14.8571 1.3646 14.6615 0.892226 14.3132 0.543945C13.9649 0.195663 13.4925 0 13 0C12.5075 0 12.0351 0.195663 11.6868 0.543945C11.3385 0.892226 11.1429 1.3646 11.1429 1.85714V11.1429H1.85714C1.3646 11.1429 0.892226 11.3385 0.543945 11.6868C0.195663 12.0351 0 12.5075 0 13C0 13.4925 0.195663 13.9649 0.543945 14.3132C0.892226 14.6615 1.3646 14.8571 1.85714 14.8571H11.1429V24.1429C11.1429 24.6354 11.3385 25.1078 11.6868 25.4561C12.0351 25.8043 12.5075 26 13 26C13.4925 26 13.9649 25.8043 14.3132 25.4561C14.6615 25.1078 14.8571 24.6354 14.8571 24.1429V14.8571H24.1429C24.6354 14.8571 25.1078 14.6615 25.4561 14.3132C25.8043 13.9649 26 13.4925 26 13C26 12.5075 25.8043 12.0351 25.4561 11.6868C25.1078 11.3385 24.6354 11.1429 24.1429 11.1429H14.8571V1.85714Z" fill="white"/>
</g>
<defs>
<clipPath id="clip0_141_164">
<rect width="26" height="26" fill="white"/>
</clipPath>
</defs>
</svg>
