<svg xmlns="http://www.w3.org/2000/svg" width="24" height="25" viewBox="0 0 24 25" fill="none">
<path fill-rule="evenodd" clip-rule="evenodd" d="M3.3791 0.13567H3.37567C2.92419 -0.0176578 2.4388 -0.0415539 1.97444 0.0666857C1.51008 0.174925 1.08529 0.410979 0.748133 0.748133C0.410979 1.08529 0.174925 1.51008 0.0666857 1.97444C-0.0415539 2.4388 -0.0176578 2.92419 0.13567 3.37567L0.946527 3.09796L0.13567 3.37738L0.137384 3.38081L0.140813 3.3911L0.154527 3.43224L0.209384 3.58996L0.415098 4.18996L1.15567 6.34138C2.91074 11.452 4.66503 16.5628 6.41853 21.674L6.63796 22.3134L6.69796 22.4917L6.7151 22.5431C6.74977 22.8712 6.87885 23.1822 7.08668 23.4384C7.29451 23.6946 7.57219 23.885 7.88606 23.9866C8.19993 24.0882 8.53654 24.0966 8.85509 24.0108C9.17363 23.925 9.46046 23.7486 9.68081 23.5031C9.81484 23.3737 9.92662 23.2231 10.0117 23.0574C10.0888 22.9065 10.1454 22.7368 10.2002 22.5791L10.202 22.5722L11.9077 17.6522L13.022 14.4362L13.3871 13.3854L13.3905 13.3768L13.4025 13.3734L14.4602 12.9997L17.6917 11.8562C19.339 11.2772 20.9836 10.6903 22.6254 10.0957L22.7042 10.0648C22.8928 9.9911 23.2305 9.86253 23.5014 9.59167C23.6597 9.43343 23.7853 9.24555 23.8709 9.03877C23.9566 8.83199 24.0007 8.61035 24.0007 8.38653C24.0007 8.1627 23.9566 7.94106 23.8709 7.73428C23.7853 7.5275 23.6597 7.33962 23.5014 7.18138L23.4842 7.16424C23.3895 7.06074 23.285 6.96659 23.1722 6.8831C22.9769 6.75122 22.7607 6.65327 22.5328 6.59338H22.5294L22.4694 6.57281L22.2842 6.51281L21.6294 6.2951L19.4042 5.54767C15.0415 4.07827 10.6797 2.60569 6.3191 1.12996L4.1831 0.409956L3.58653 0.204241L3.4271 0.154527L3.38767 0.137384L3.3791 0.13567Z" fill="white"/>
</svg>