<svg width="35" height="35" viewBox="0 0 35 35" fill="none" xmlns="http://www.w3.org/2000/svg">
<g id="Frame" clip-path="url(#clip0_8_236)">
<g id="Group">
<path id="Vector" d="M32.0834 16.0417C32.0834 23.2867 26.2034 29.1667 18.9584 29.1667C11.7134 29.1667 5.83337 23.2867 5.83337 16.0417C5.83337 8.79666 11.7134 2.91666 18.9584 2.91666C26.2034 2.91666 32.0834 8.79666 32.0834 16.0417ZM8.75004 16.0417C8.75004 21.681 13.319 26.25 18.9584 26.25C24.5992 26.25 29.1667 21.681 29.1667 16.0417C29.1667 10.4008 24.5992 5.83332 18.9584 5.83332C13.319 5.83332 8.75004 10.4008 8.75004 16.0417ZM8.6465 28.4156L4.52233 32.5412L2.45879 30.4777L6.58441 26.3535L8.6465 28.4156Z" fill="#016AFC"/>
</g>
</g>
<defs>
<clipPath id="clip0_8_236">
<rect width="35" height="35" fill="white" transform="matrix(0 1 -1 0 35 0)"/>
</clipPath>
</defs>
</svg>
