<svg xmlns="http://www.w3.org/2000/svg" width="24" height="24" viewBox="0 0 24 24" fill="none">
<path fill-rule="evenodd" clip-rule="evenodd" d="M2.57143 0C1.88944 0 1.23539 0.270918 0.753154 0.753154C0.270918 1.23539 0 1.88944 0 2.57143L0 16.2857C0 16.9677 0.270918 17.6218 0.753154 18.104C1.23539 18.5862 1.88944 18.8571 2.57143 18.8571H16.2857C16.9677 18.8571 17.6218 18.5862 18.104 18.104C18.5862 17.6218 18.8571 16.9677 18.8571 16.2857V2.57143C18.8571 1.88944 18.5862 1.23539 18.104 0.753154C17.6218 0.270918 16.9677 0 16.2857 0L2.57143 0ZM24 7.28571C24 6.94472 23.8645 6.6177 23.6234 6.37658C23.3823 6.13546 23.0553 6 22.7143 6C22.3733 6 22.0463 6.13546 21.8051 6.37658C21.564 6.6177 21.4286 6.94472 21.4286 7.28571V20.1429C21.4286 20.4838 21.2931 20.8109 21.052 21.052C20.8109 21.2931 20.4838 21.4286 20.1429 21.4286H7.28571C6.94472 21.4286 6.6177 21.564 6.37658 21.8051C6.13546 22.0463 6 22.3733 6 22.7143C6 23.0553 6.13546 23.3823 6.37658 23.6234C6.6177 23.8645 6.94472 24 7.28571 24H20.1429C21.1658 24 22.1469 23.5936 22.8703 22.8703C23.5936 22.1469 24 21.1658 24 20.1429V7.28571Z" fill="white"/>
</svg>