<svg xmlns="http://www.w3.org/2000/svg" width="33" height="35" viewBox="0 0 33 35" fill="none">
  <path fill-rule="evenodd" clip-rule="evenodd" d="M12.4591 1.725L11.3016 4.7125L7.31656 6.9725L4.14156 6.4875C3.61206 6.41523 3.07304 6.50217 2.59311 6.73723C2.11318 6.9723 1.71406 7.34487 1.44656 7.8075L0.371558 9.6925C0.0955307 10.1619 -0.0316851 10.7039 0.00669916 11.2471C0.0450834 11.7903 0.247264 12.3091 0.586558 12.735L2.60406 15.2375V19.7625L0.641558 22.265C0.302264 22.6909 0.100083 23.2097 0.061699 23.7529C0.0233148 24.2961 0.150531 24.8381 0.426558 25.3075L1.50156 27.1925C1.76906 27.6551 2.16818 28.0277 2.64811 28.2628C3.12804 28.4978 3.66706 28.5848 4.19656 28.5125L7.37156 28.0275L11.3041 30.2875L12.4616 33.2775C12.6564 33.7829 12.9993 34.2178 13.4453 34.5251C13.8914 34.8325 14.4199 34.998 14.9616 35H17.2241C17.7669 34.9988 18.2967 34.8334 18.7438 34.5255C19.1908 34.2176 19.5343 33.7817 19.7291 33.275L20.8866 30.2875L24.8166 28.0275L27.9916 28.5125C28.5211 28.5848 29.0601 28.4978 29.54 28.2628C30.0199 28.0277 30.4191 27.6551 30.6866 27.1925L31.7616 25.3075C32.0376 24.8381 32.1648 24.2961 32.1264 23.7529C32.088 23.2097 31.8859 22.6909 31.5466 22.265L29.5291 19.7625V15.2375L31.4941 12.735C31.8334 12.3091 32.0355 11.7903 32.0739 11.2471C32.1123 10.7039 31.9851 10.1619 31.7091 9.6925L30.6341 7.8075C30.3668 7.34463 29.9677 6.97187 29.4877 6.73677C29.0077 6.50167 28.4686 6.41489 27.9391 6.4875L24.7641 6.9725L20.8316 4.7125L19.6741 1.7225C19.4788 1.21685 19.1354 0.78192 18.689 0.474592C18.2425 0.167264 17.7136 0.0018541 17.1716 0L14.9616 0C14.4192 0.00204955 13.8902 0.167827 13.4436 0.475623C12.9971 0.78342 12.6539 1.21889 12.4591 1.725ZM16.0666 23.125C16.8052 23.125 17.5367 22.9795 18.2192 22.6968C18.9016 22.4141 19.5217 21.9998 20.044 21.4775C20.5664 20.9551 20.9807 20.3351 21.2634 19.6526C21.5461 18.9701 21.6916 18.2387 21.6916 17.5C21.6916 16.7613 21.5461 16.0299 21.2634 15.3474C20.9807 14.6649 20.5664 14.0449 20.044 13.5225C19.5217 13.0002 18.9016 12.5859 18.2192 12.3032C17.5367 12.0205 16.8052 11.875 16.0666 11.875C14.5747 11.875 13.144 12.4676 12.0891 13.5225C11.0342 14.5774 10.4416 16.0082 10.4416 17.5C10.4416 18.9918 11.0342 20.4226 12.0891 21.4775C13.144 22.5324 14.5747 23.125 16.0666 23.125Z" fill="white"/>
</svg>