<svg width="25" height="25" viewBox="0 0 25 25" fill="none" xmlns="http://www.w3.org/2000/svg">
<g id="user-check-validate--actions-close-checkmark-check-geometric-human-person-single-success-up-user">
<path id="Vector" d="M8.71418 9.57143C11.0811 9.57143 12.9999 7.65265 12.9999 5.28571C12.9999 2.91878 11.0811 1 8.71418 1C6.34725 1 4.42847 2.91878 4.42847 5.28571C4.42847 7.65265 6.34725 9.57143 8.71418 9.57143Z" stroke="white" stroke-width="1.71429" stroke-linecap="round" stroke-linejoin="round"/>
<path id="Vector_2" d="M8.71429 21.5715H1V20.6421C1.01365 19.3355 1.35825 18.0536 2.00161 16.9163C2.64498 15.7789 3.56611 14.8232 4.67898 14.1383C5.79186 13.4535 7.06015 13.0619 8.36539 13.0001C8.48176 12.9946 8.59809 12.9917 8.71429 12.9915C8.83048 12.9917 8.94683 12.9946 9.06319 13.0001C10.3684 13.0619 11.6367 13.4535 12.7496 14.1383C13.3896 14.5321 13.9661 15.0155 14.4629 15.5715" stroke="white" stroke-width="1.71429" stroke-linecap="round" stroke-linejoin="round"/>
<path id="Vector_3" d="M23.2857 14.7144L16.4286 23.2858L13 20.7144" stroke="white" stroke-width="1.71429" stroke-linecap="round" stroke-linejoin="round"/>
</g>
</svg>
