<svg width="24" height="24" viewBox="0 0 24 24" fill="none" xmlns="http://www.w3.org/2000/svg">
<path d="M22.3855 14.1604L14.6375 21.9083L11.1335 22.3854L11.6271 18.8815L19.3587 11.1335L22.3855 14.1604Z" stroke="black" stroke-width="1.71429" stroke-linecap="round" stroke-linejoin="round"/>
<path d="M7.22026 22.3852H3.13854C2.57136 22.3852 2.02742 22.1598 1.62636 21.7588C1.22531 21.3577 1 20.8139 1 20.2467V3.13852C1 2.57135 1.22531 2.02741 1.62636 1.62636C2.02742 1.22531 2.57136 1 3.13854 1H20.2468C20.814 1 21.3579 1.22531 21.7589 1.62636C22.16 2.02741 22.3854 2.57135 22.3854 3.13852V7.99131" stroke="black" stroke-width="1.71429" stroke-linecap="round" stroke-linejoin="round"/>
<path d="M15.006 8.06639C16.1417 8.06639 17.0623 7.14578 17.0623 6.01012C17.0623 4.87449 16.1417 3.95386 15.006 3.95386C13.8703 3.95386 12.9497 4.87449 12.9497 6.01012C12.9497 7.14578 13.8703 8.06639 15.006 8.06639Z" stroke="black" stroke-width="1.71429" stroke-linecap="round" stroke-linejoin="round"/>
<path d="M1 11.9616C1.97752 11.7849 2.98441 11.6926 4.01287 11.6926C6.77954 11.6926 9.39026 12.3603 11.6927 13.5434" stroke="black" stroke-width="1.71429" stroke-linecap="round" stroke-linejoin="round"/>
</svg>
